<svg xmlns="http://www.w3.org/2000/svg" width="278.852" height="367.04" viewBox="0 0 278.852 367.04">
  <title>ocsf_camel-mark_color</title>
  <g>
    <g>
      <path d="M36.025,166.507c-.086.128-.172.235-.257.364a2.485,2.485,0,0,1,.235-.407C36,166.485,36,166.507,36.025,166.507Z" fill="#f47851"/>
      <path d="M233.794,237.475,233.718,367,216.6,367l-11.4-115.348a144.538,144.538,0,0,0,15.668-6.913c5.86-3.057,11.919-6.708,12.82-7.324A.073.073,0,0,1,233.794,237.475Z" fill="#f47851"/>
      <path d="M35.768,166.871a3.125,3.125,0,0,0-.214.363c0-.021-.022-.042-.022-.064C35.618,167.063,35.682,166.977,35.768,166.871Z" fill="#f47851"/>
      <path d="M78.466,239.418A141.921,141.921,0,0,0,92.2,247.511c6.121,2.852,13.349,5.684,13.349,5.684L77.672,299.586,97.264,367.04l-19.591,0L53.16,298.763Z" fill="#f47851"/>
    </g>
    <path d="M184.862,243.774l.264,123.208h-16.12s-8.034-53.633-8.1-54.055c-4.932-31.149-9.937-64.746-9.94-64.745-1.321.064-2.674.095-4.028.095a109.25,109.25,0,0,1-52.095-13.46C86.3,230.16,74.6,220.622,73.5,219.625c-8.157,36.092-47.6,69.518-47.6,69.518l-2.421,77.7-16.346-.032L0,283.676c10.951-13.471,18.239-25.966,22.955-43.152,2.972-10.789,1.971-22.9,1.971-22.9-.01-.023-7.218-.554-7.25-.554A73.059,73.059,0,0,1,16.3,200.886a64.915,64.915,0,0,1,5.935-27.112,44.168,44.168,0,0,1,7-10.985,69.835,69.835,0,0,1,21.608-16.535c2.707-1.335,7.645-2.774,10.059-4.612,6.6-5.027,9.936-10.991,15.359-17.248,5.225-6.028,9.692-12.97,15.329-18.607,3.715-3.714,10.674-6.4,16.327-6.4a20.33,20.33,0,0,1,14.473,6.009c3.78,3.78,17.906,26.28,24.916,26.28,7.418,0,18.173-20.822,24.607-26.28a26.593,26.593,0,0,1,5.072-3.683,20.179,20.179,0,0,1,9.433-2.326,20.6,20.6,0,0,1,14.5,6.009c2.584,2.617,20.61,32.628,26.231,39.347,6.744-2.26,16.359-20.9,10.5-64.336-.549.055-30.2-9.18-30.2-9.18-4.488,4.608-19.478,1.623-16.682-8.931.206-.781,14.852-14.814,14.852-14.814L229,48.4s13.712-6.591,25.741-3.943c.065.109,21.213,5.453,21.213,5.453s2.9,32.488,2.9,66.58C278.852,167.6,252.789,227.527,184.862,243.774Z" fill="#f67242"/>
    <path d="M56.157,56.547,44.58,48.867l12.691-16.7L38.236,25.712l4.341-12.8L61.167,19.7V0H75.415V19.7L94,12.912l4.342,12.8L79.311,32.171,92,48.867l-11.578,7.68L68.291,39.963Z" fill="#303033"/>
  </g>
</svg>
