<svg xmlns="http://www.w3.org/2000/svg" width="850.969" height="809.755" viewBox="0 0 850.969 809.755">
  <title>ocsf_logo_rgb_white</title>
  <g>
    <g>
      <g>
        <path d="M331.083,166.507c-.085.128-.171.235-.257.364a2.489,2.489,0,0,1,.236-.407C331.062,166.485,331.062,166.507,331.083,166.507Z" fill="#fff"/>
        <path d="M528.853,237.475,528.777,367l-17.121,0L500.25,251.648a144.6,144.6,0,0,0,15.669-6.913c5.859-3.057,11.919-6.708,12.819-7.324A.074.074,0,0,1,528.853,237.475Z" fill="#fff"/>
        <path d="M330.826,166.871a3.274,3.274,0,0,0-.214.363c0-.021-.021-.042-.021-.064C330.676,167.063,330.741,166.977,330.826,166.871Z" fill="#fff"/>
        <path d="M373.525,239.418a141.921,141.921,0,0,0,13.734,8.093c6.121,2.852,13.349,5.684,13.349,5.684l-27.877,46.391,19.592,67.454-19.591,0-24.514-68.273Z" fill="#fff"/>
      </g>
      <path d="M479.92,243.774l.264,123.208h-16.12s-8.033-53.633-8.1-54.055c-4.932-31.149-9.936-64.746-9.939-64.745-1.321.064-2.675.095-4.028.095a109.25,109.25,0,0,1-52.1-13.46c-8.546-4.657-20.25-14.195-21.347-15.192-8.157,36.092-47.606,69.518-47.606,69.518l-2.42,77.7-16.347-.032-7.125-83.137c10.951-13.471,18.238-25.966,22.955-43.152,2.972-10.789,1.97-22.9,1.97-22.9-.009-.023-7.217-.554-7.249-.554a73.059,73.059,0,0,1-1.376-16.181,64.9,64.9,0,0,1,5.935-27.112,44.164,44.164,0,0,1,7-10.985A69.839,69.839,0,0,1,345.9,146.254c2.707-1.335,7.645-2.774,10.059-4.612,6.6-5.027,9.935-10.991,15.359-17.248,5.225-6.028,9.691-12.97,15.328-18.607,3.715-3.714,10.675-6.4,16.328-6.4a20.332,20.332,0,0,1,14.473,6.009c3.779,3.78,17.906,26.28,24.916,26.28,7.418,0,18.173-20.822,24.606-26.28a26.625,26.625,0,0,1,5.072-3.683,20.182,20.182,0,0,1,9.433-2.326,20.6,20.6,0,0,1,14.5,6.009c2.585,2.617,20.611,32.628,26.232,39.347,6.743-2.26,16.358-20.9,10.5-64.336-.549.055-30.2-9.18-30.2-9.18-4.489,4.608-19.479,1.623-16.683-8.931.207-.781,14.852-14.814,14.852-14.814l23.385.915S537.772,41.8,549.8,44.452c.066.109,21.214,5.453,21.214,5.453s2.9,32.488,2.9,66.58C573.911,167.6,547.848,227.527,479.92,243.774Z" fill="#fff"/>
      <path d="M351.216,56.547l-11.578-7.68,12.691-16.7L333.3,25.712l4.341-12.8L356.225,19.7V0h14.248V19.7l18.59-6.789,4.341,12.8-19.035,6.459,12.692,16.7-11.578,7.68L363.349,39.963Z" fill="#fff"/>
    </g>
    <g>
      <path d="M486.005,693.944c-3.444-.788-6.072-3.547-6.072-11.277V617.41c0-41.692-8.048-59.12-58.106-59.12-53.069,0-58.8,24.522-58.8,35.06a61.28,61.28,0,0,0,4.458,22.988l.608,1.535h25.159V590.89c7.528-3.648,15.49-5.009,28.576-5.009,11.291,0,22.206,1.94,27.88,4.893v33.381l-24.2,3.04c-35.293,3.909-71.4,12.739-71.4,48.552,0,28.344,17.6,44.586,48.263,44.586a68.5,68.5,0,0,0,49.8-21.019c2.9,12.247,12.768,19.4,27.331,19.4a102.025,102.025,0,0,0,19.282-1.679l1.94-.4V695.2S489.741,694.8,486.005,693.944Zm-77.38-.189c-15.432,0-22.959-6.427-22.959-19.658,0-13.491,10.394-19.542,41.112-23.972l22.929-3.243V677.05C441.138,685.273,426.083,693.755,408.625,693.755Z" fill="#fff"/>
      <path d="M326.93,673.391l-.984.644c-18.478,11.91-37.369,16.25-60.787,16.25-53.762,0-61.77-55.175-61.77-88.088,0-39.758,11.1-87.157,64.052-87.157,14.89,0,25.772,3.1,37.19,7.812l3.445,41h25.933l1.422-61.627-1.449-.663c-23.248-10.559-44.8-15.677-65.879-15.677-44.5,0-75.936,22.621-89.412,64a2.761,2.761,0,0,0-.143.438c-.063-.206-.117-.411-.179-.608-12.116-42.4-40.912-63.829-85.744-63.829C31.176,485.886,0,525.33,0,603.182c0,76.553,31.812,117.009,91.963,117.009,44.885,0,73.833-21.2,86.146-63.015.063-.179.117-.376.179-.555.063.213.112.385.17.582,12.555,41.234,41.816,62.988,85.055,62.988,28.715,0,50.111-4.975,72.607-19.382l1.593-1.011Zm-234.3,18.228c-41.377,0-59.829-27.275-59.829-88.437,0-60.581,18.917-88.805,59.516-88.805,41.351,0,59.775,27.383,59.775,88.805C152.087,664.344,133.752,691.619,92.625,691.619Z" fill="#fff"/>
      <path d="M764.176,695.434v21.11H696.392v-21.11l18.334-4.338V618.308c0-23.54-6.218-31.492-24.581-31.492-13.707,0-27.126,5.465-34.471,13.938V691.1l18.306,4.338v21.11h-66.8v-21.11L625.83,691.1v-89.3c-5.205-9.948-14.575-14.979-27.877-14.979-13.477,0-24.032,4.453-33.141,14.025V691.1l18.3,4.338v21.11h-68.1v-21.11l20.272-4.338V588.811l-21.4-4.338v-22.9h48.93V573.8a61.221,61.221,0,0,1,41.065-15.5c19.722,0,32.5,5.957,42.105,19.838,12.146-12.811,29.44-19.838,49.075-19.838,34.24,0,49.509,17.987,49.509,58.386V691.1Z" fill="#fff"/>
      <path d="M846.19,715.359l-1.678.665a64.873,64.873,0,0,1-23.944,4.135c-31.608,0-35.657-23.279-35.657-43.58v-166.8l-27.646-5.784V482.564h56.854V673.947c0,14.951,4.28,17.67,12.724,17.67a41.394,41.394,0,0,0,14-2.14l2.949-1.07Z" fill="#fff"/>
      <g>
        <path d="M15.756,808.152a26.867,26.867,0,0,1-8.873-4.17l3.92-8.692a26.592,26.592,0,0,0,7.625,3.775,28.6,28.6,0,0,0,8.835,1.424q4.918,0,7.269-1.458a4.413,4.413,0,0,0,2.352-3.884,3.719,3.719,0,0,0-1.389-2.959,10.553,10.553,0,0,0-3.563-1.886q-2.175-.715-5.88-1.57a80.843,80.843,0,0,1-9.335-2.708,15.169,15.169,0,0,1-6.235-4.346,11.735,11.735,0,0,1-2.6-7.979,13.879,13.879,0,0,1,2.352-7.877,15.809,15.809,0,0,1,7.09-5.593A28.922,28.922,0,0,1,28.9,758.163a38.258,38.258,0,0,1,9.334,1.142,27.573,27.573,0,0,1,7.982,3.276l-3.563,8.766a27.81,27.81,0,0,0-13.825-3.921q-4.845,0-7.161,1.567a4.788,4.788,0,0,0-2.316,4.135,4.041,4.041,0,0,0,2.673,3.813,42.046,42.046,0,0,0,8.158,2.457,81.713,81.713,0,0,1,9.335,2.708,15.483,15.483,0,0,1,6.235,4.275,11.467,11.467,0,0,1,2.6,7.91,13.618,13.618,0,0,1-2.387,7.8,16.048,16.048,0,0,1-7.161,5.6,29.23,29.23,0,0,1-11.615,2.066A40.872,40.872,0,0,1,15.756,808.152Z" fill="#fff"/>
        <path d="M66.847,806.939a18.789,18.789,0,0,1-7.518-7.018,20.528,20.528,0,0,1,0-20.381,18.794,18.794,0,0,1,7.518-7.017,24.517,24.517,0,0,1,21.7,0,18.882,18.882,0,0,1,7.483,7.017,20.541,20.541,0,0,1,0,20.381,18.878,18.878,0,0,1-7.483,7.018,24.517,24.517,0,0,1-21.7,0Zm17.886-9.477a12.266,12.266,0,0,0,0-15.462,9.257,9.257,0,0,0-7.019-2.888A9.368,9.368,0,0,0,70.659,782a12.143,12.143,0,0,0,0,15.462,9.378,9.378,0,0,0,7.055,2.887A9.267,9.267,0,0,0,84.733,797.462Z" fill="#fff"/>
        <path d="M121.909,771.416h9.834v8.552h-9.55V808.9H111.078V779.968h-5.914v-8.552h5.914v-1.71q0-6.554,3.882-10.4t10.939-3.85a20.516,20.516,0,0,1,4.738.534,11.516,11.516,0,0,1,3.742,1.532l-2.921,8.053a7.611,7.611,0,0,0-4.491-1.355q-5.059,0-5.058,5.559Z" fill="#fff"/>
        <path d="M167.5,807.047a11.451,11.451,0,0,1-4.025,1.818,20.463,20.463,0,0,1-5.024.605q-6.841,0-10.582-3.493t-3.741-10.262V779.968h-5.915v-8.552h5.915v-9.335h11.115v9.335h9.55v8.552h-9.55v15.607a5.23,5.23,0,0,0,1.247,3.739,4.616,4.616,0,0,0,3.527,1.318,7.15,7.15,0,0,0,4.491-1.424Z" fill="#fff"/>
        <path d="M239.257,770.562,225.36,808.9H214.672l-8.623-23.8-8.906,23.8H186.454L172.63,770.562H183.1l9.051,25.938,9.406-25.938h9.405l9.122,25.938,9.335-25.938Z" fill="#fff"/>
        <path d="M277,774.232q4.773,4.239,4.774,12.791V808.9h-10.4v-4.774q-3.135,5.346-11.686,5.345a18.111,18.111,0,0,1-7.66-1.5,11.412,11.412,0,0,1-4.953-4.132,10.757,10.757,0,0,1-1.709-5.985,9.991,9.991,0,0,1,4.025-8.41q4.026-3.065,12.435-3.064h8.836a7.088,7.088,0,0,0-2.209-5.594q-2.21-1.961-6.627-1.96a19.328,19.328,0,0,0-6.022.964,15.9,15.9,0,0,0-5.024,2.6l-3.989-7.768a24.065,24.065,0,0,1,7.517-3.418,33.658,33.658,0,0,1,9.015-1.213Q272.227,769.992,277,774.232Zm-9.479,26.437a7.217,7.217,0,0,0,3.136-3.884v-3.918h-7.625q-6.84,0-6.84,4.489a4,4,0,0,0,1.673,3.384,7.548,7.548,0,0,0,4.6,1.248A9.677,9.677,0,0,0,267.524,800.669Z" fill="#fff"/>
        <path d="M310.856,771.416a20,20,0,0,1,7.8-1.424v10.262q-1.853-.141-2.494-.143a10.19,10.19,0,0,0-7.482,2.671q-2.707,2.676-2.707,8.016v18.1H294.858V770.562h10.617v5.06A12.391,12.391,0,0,1,310.856,771.416Z" fill="#fff"/>
        <path d="M365.91,792.867h-29a9.02,9.02,0,0,0,3.7,5.628,12.273,12.273,0,0,0,7.269,2.066,14.65,14.65,0,0,0,5.308-.891,12.882,12.882,0,0,0,4.311-2.813l5.915,6.412q-5.418,6.2-15.82,6.2a25.027,25.027,0,0,1-11.472-2.531,18.533,18.533,0,0,1-7.7-7.018,19.322,19.322,0,0,1-2.708-10.19,19.585,19.585,0,0,1,2.672-10.154,18.722,18.722,0,0,1,7.34-7.054,22.717,22.717,0,0,1,20.629-.108,17.7,17.7,0,0,1,7.162,6.948,20.731,20.731,0,0,1,2.6,10.511Q366.124,790.087,365.91,792.867ZM339.9,780.539a9.1,9.1,0,0,0-3.135,5.842h18.883a9.2,9.2,0,0,0-3.135-5.808,9.382,9.382,0,0,0-6.271-2.171A9.564,9.564,0,0,0,339.9,780.539Z" fill="#fff"/>
        <path d="M413.867,768.282v13.182h23.086v9.266H413.867V808.9H402.322v-49.88h37.7v9.263Z" fill="#fff"/>
        <path d="M456.949,806.939a18.789,18.789,0,0,1-7.518-7.018,20.528,20.528,0,0,1,0-20.381,18.794,18.794,0,0,1,7.518-7.017,24.517,24.517,0,0,1,21.7,0,18.882,18.882,0,0,1,7.483,7.017,20.541,20.541,0,0,1,0,20.381,18.878,18.878,0,0,1-7.483,7.018,24.517,24.517,0,0,1-21.7,0Zm17.886-9.477a12.266,12.266,0,0,0,0-15.462,9.257,9.257,0,0,0-7.019-2.888A9.364,9.364,0,0,0,460.762,782a12.14,12.14,0,0,0,0,15.462,9.375,9.375,0,0,0,7.054,2.887A9.267,9.267,0,0,0,474.835,797.462Z" fill="#fff"/>
        <path d="M538,770.562V808.9H527.453v-4.56a14.752,14.752,0,0,1-5.274,3.813,16.606,16.606,0,0,1-6.628,1.318q-7.553,0-11.971-4.346t-4.418-12.9V770.562h11.117v20.025q0,9.262,7.766,9.263a8.346,8.346,0,0,0,6.414-2.6q2.421-2.6,2.423-7.731V770.562Z" fill="#fff"/>
        <path d="M586.126,774.267q4.385,4.275,4.382,12.684V808.9H579.393V788.661q0-4.56-2-6.8a7.313,7.313,0,0,0-5.772-2.245,8.838,8.838,0,0,0-6.7,2.6q-2.5,2.6-2.5,7.731V808.9H551.317V770.562h10.617v4.489a14.755,14.755,0,0,1,5.486-3.741,19.116,19.116,0,0,1,7.2-1.318Q581.742,769.992,586.126,774.267Z" fill="#fff"/>
        <path d="M642.84,756.026V808.9H632.222v-4.417q-4.132,4.986-11.971,4.988a19.912,19.912,0,0,1-9.8-2.423,17.356,17.356,0,0,1-6.876-6.912,22.95,22.95,0,0,1,0-20.809,17.341,17.341,0,0,1,6.876-6.911,19.9,19.9,0,0,1,9.8-2.423q7.34,0,11.473,4.631v-18.6Zm-13.681,41.436a12.146,12.146,0,0,0,0-15.462,9.975,9.975,0,0,0-14.039,0,12.146,12.146,0,0,0,0,15.462,9.977,9.977,0,0,0,14.039,0Z" fill="#fff"/>
        <path d="M685.481,774.232q4.773,4.239,4.774,12.791V808.9h-10.4v-4.774q-3.136,5.346-11.686,5.345a18.116,18.116,0,0,1-7.661-1.5,11.412,11.412,0,0,1-4.953-4.132,10.757,10.757,0,0,1-1.709-5.985,9.991,9.991,0,0,1,4.025-8.41q4.026-3.065,12.435-3.064h8.837a7.091,7.091,0,0,0-2.209-5.594q-2.211-1.961-6.628-1.96a19.322,19.322,0,0,0-6.021.964,15.894,15.894,0,0,0-5.024,2.6l-3.99-7.768a24.065,24.065,0,0,1,7.517-3.418,33.664,33.664,0,0,1,9.015-1.213Q680.7,769.992,685.481,774.232ZM676,800.669a7.222,7.222,0,0,0,3.136-3.884v-3.918h-7.625q-6.842,0-6.841,4.489a4,4,0,0,0,1.674,3.384,7.545,7.545,0,0,0,4.6,1.248A9.683,9.683,0,0,0,676,800.669Z" fill="#fff"/>
        <path d="M727.886,807.047a11.442,11.442,0,0,1-4.025,1.818,20.463,20.463,0,0,1-5.024.605q-6.841,0-10.582-3.493t-3.741-10.262V779.968H698.6v-8.552h5.914v-9.335h11.115v9.335h9.55v8.552h-9.55v15.607a5.23,5.23,0,0,0,1.247,3.739,4.616,4.616,0,0,0,3.527,1.318,7.15,7.15,0,0,0,4.491-1.424Z" fill="#fff"/>
        <path d="M737.854,763.437a6.037,6.037,0,0,1,0-8.838,7.066,7.066,0,0,1,4.988-1.781,7.237,7.237,0,0,1,4.988,1.709,5.487,5.487,0,0,1,1.924,4.278,6.046,6.046,0,0,1-1.924,4.6,6.966,6.966,0,0,1-4.988,1.817A7.052,7.052,0,0,1,737.854,763.437Zm-.57,7.125H748.4V808.9H737.284Z" fill="#fff"/>
        <path d="M769.18,806.939a18.8,18.8,0,0,1-7.518-7.018,20.528,20.528,0,0,1,0-20.381,18.8,18.8,0,0,1,7.518-7.017,24.519,24.519,0,0,1,21.7,0,18.879,18.879,0,0,1,7.482,7.017,20.535,20.535,0,0,1,0,20.381,18.875,18.875,0,0,1-7.482,7.018,24.519,24.519,0,0,1-21.7,0Zm17.886-9.477a12.263,12.263,0,0,0,0-15.462,9.254,9.254,0,0,0-7.019-2.888A9.364,9.364,0,0,0,772.993,782a12.14,12.14,0,0,0,0,15.462,9.375,9.375,0,0,0,7.054,2.887A9.264,9.264,0,0,0,787.066,797.462Z" fill="#fff"/>
        <path d="M846.587,774.267q4.383,4.275,4.382,12.684V808.9H839.854V788.661q0-4.56-2-6.8a7.313,7.313,0,0,0-5.772-2.245,8.841,8.841,0,0,0-6.7,2.6q-2.495,2.6-2.494,7.731V808.9H811.778V770.562H822.4v4.489a14.747,14.747,0,0,1,5.486-3.741,19.116,19.116,0,0,1,7.2-1.318Q842.2,769.992,846.587,774.267Z" fill="#fff"/>
      </g>
    </g>
  </g>
</svg>
