<svg xmlns="http://www.w3.org/2000/svg" width="112.541" height="31.511" viewBox="0 0 112.541 31.511">
  <title>ocsf_logo_rgb_black</title>
  <g>
    <g>
      <path d="M68.933,20.875c-.282-.065-.5-.292-.5-.926V14.594c0-3.421-.66-4.851-4.768-4.851-4.354,0-4.825,2.012-4.825,2.877a5.016,5.016,0,0,0,.366,1.886l.05.126h2.064V12.418a5.055,5.055,0,0,1,2.345-.411,5.6,5.6,0,0,1,2.288.4v2.739l-1.986.249c-2.9.321-5.858,1.046-5.858,3.984,0,2.326,1.444,3.659,3.96,3.659a5.623,5.623,0,0,0,4.086-1.725A2.09,2.09,0,0,0,68.4,22.907a8.345,8.345,0,0,0,1.582-.138l.159-.033V20.978A10.812,10.812,0,0,1,68.933,20.875Zm-6.349-.016c-1.266,0-1.884-.527-1.884-1.613,0-1.107.853-1.6,3.373-1.967l1.882-.266v2.475A5.04,5.04,0,0,1,62.584,20.859Z" fill="#303033"/>
      <path d="M55.88,19.188l-.08.053a8.671,8.671,0,0,1-4.988,1.333c-4.412,0-5.069-4.527-5.069-7.228,0-3.262.911-7.152,5.256-7.152a7.478,7.478,0,0,1,3.052.641l.282,3.365h2.128l.117-5.057-.119-.055A12.964,12.964,0,0,0,51.053,3.8a7.192,7.192,0,0,0-7.337,5.252.215.215,0,0,0-.011.036l-.015-.05C42.7,5.561,40.333,3.8,36.654,3.8c-5.042,0-7.6,3.237-7.6,9.625,0,6.282,2.61,9.6,7.546,9.6,3.683,0,6.058-1.739,7.069-5.17l.014-.046.014.048a6.753,6.753,0,0,0,6.98,5.168,10.187,10.187,0,0,0,5.958-1.59l.13-.083Zm-19.226,1.5c-3.4,0-4.909-2.238-4.909-7.257,0-4.971,1.552-7.287,4.883-7.287,3.394,0,4.905,2.247,4.905,7.287C41.533,18.446,40.029,20.684,36.654,20.684Z" fill="#303033"/>
      <path d="M91.759,21v1.732H86.2V21l1.5-.356V14.668c0-1.931-.51-2.584-2.017-2.584a3.838,3.838,0,0,0-2.828,1.144v7.413l1.5.356v1.732H78.876V21l1.531-.356V13.313a2.363,2.363,0,0,0-2.288-1.229A3.529,3.529,0,0,0,75.4,13.235v7.406L76.9,21v1.732H71.314V21l1.663-.356V12.248l-1.756-.356v-1.88h4.015v1a5.024,5.024,0,0,1,3.37-1.272,3.764,3.764,0,0,1,3.455,1.628,5.443,5.443,0,0,1,4.027-1.628c2.809,0,4.062,1.476,4.062,4.791v6.106Z" fill="#303033"/>
      <path d="M98.489,22.632l-.138.054a5.322,5.322,0,0,1-1.965.34c-2.593,0-2.925-1.911-2.925-3.576V5.762l-2.269-.474V3.529h4.665V19.234c0,1.226.351,1.45,1.044,1.45a3.392,3.392,0,0,0,1.149-.176l.242-.088Z" fill="#303033"/>
    </g>
    <g>
      <path d="M30.49,31.354a2.646,2.646,0,0,1-.871-.41L30,30.09a2.6,2.6,0,0,0,.749.371,2.819,2.819,0,0,0,.868.14,1.394,1.394,0,0,0,.714-.143.434.434,0,0,0,.231-.382.366.366,0,0,0-.137-.291,1.052,1.052,0,0,0-.35-.185c-.142-.047-.335-.1-.577-.154a7.943,7.943,0,0,1-.917-.266,1.492,1.492,0,0,1-.613-.427,1.154,1.154,0,0,1-.255-.784,1.365,1.365,0,0,1,.231-.774,1.551,1.551,0,0,1,.7-.549,2.835,2.835,0,0,1,1.138-.2,3.756,3.756,0,0,1,.917.112,2.726,2.726,0,0,1,.784.322l-.35.861a2.732,2.732,0,0,0-1.358-.385,1.272,1.272,0,0,0-.7.154.469.469,0,0,0-.227.406.4.4,0,0,0,.262.374,4.061,4.061,0,0,0,.8.242,8,8,0,0,1,.917.266,1.521,1.521,0,0,1,.612.42,1.122,1.122,0,0,1,.256.777,1.332,1.332,0,0,1-.235.766,1.574,1.574,0,0,1-.7.55,2.875,2.875,0,0,1-1.141.2A4.047,4.047,0,0,1,30.49,31.354Z" fill="#303033"/>
      <path d="M35.509,31.234a1.838,1.838,0,0,1-.738-.689,2.016,2.016,0,0,1,0-2,1.847,1.847,0,0,1,.738-.69,2.415,2.415,0,0,1,2.132,0,1.859,1.859,0,0,1,.735.69,2.016,2.016,0,0,1,0,2,1.849,1.849,0,0,1-.735.689,2.406,2.406,0,0,1-2.132,0Zm1.757-.931a1.2,1.2,0,0,0,0-1.518.9.9,0,0,0-.689-.284.918.918,0,0,0-.693.284,1.192,1.192,0,0,0,0,1.518.921.921,0,0,0,.693.284A.908.908,0,0,0,37.266,30.3Z" fill="#303033"/>
      <path d="M40.919,27.745h.966v.84h-.939v2.842H39.855V28.585h-.582v-.84h.582v-.168a1.375,1.375,0,0,1,.381-1.022,1.459,1.459,0,0,1,1.074-.378,2,2,0,0,1,.466.052,1.12,1.12,0,0,1,.368.151l-.287.791a.745.745,0,0,0-.442-.133q-.5,0-.5.546Z" fill="#303033"/>
      <path d="M45.4,31.245a1.132,1.132,0,0,1-.395.179,2.038,2.038,0,0,1-.494.059,1.463,1.463,0,0,1-1.039-.343,1.312,1.312,0,0,1-.368-1.008V28.585H42.52v-.84H43.1v-.917h1.092v.917h.938v.84h-.938v1.533a.51.51,0,0,0,.123.367.45.45,0,0,0,.346.13.7.7,0,0,0,.441-.14Z" fill="#303033"/>
      <path d="M52.447,27.661l-1.365,3.766H50.031l-.847-2.338-.875,2.338h-1.05L45.9,27.661H46.93l.889,2.548.924-2.548h.924l.9,2.548.917-2.548Z" fill="#303033"/>
      <path d="M56.155,28.021a1.6,1.6,0,0,1,.469,1.257v2.149H55.6v-.469a1.218,1.218,0,0,1-1.148.525,1.781,1.781,0,0,1-.753-.147,1.12,1.12,0,0,1-.486-.406,1.058,1.058,0,0,1-.168-.588.98.98,0,0,1,.4-.826,2.015,2.015,0,0,1,1.222-.3h.868a.7.7,0,0,0-.217-.55.959.959,0,0,0-.651-.192,1.876,1.876,0,0,0-.592.1,1.541,1.541,0,0,0-.493.255l-.392-.763a2.344,2.344,0,0,1,.738-.336,3.322,3.322,0,0,1,.886-.119A1.964,1.964,0,0,1,56.155,28.021Zm-.931,2.6a.717.717,0,0,0,.308-.382v-.385h-.749q-.672,0-.672.441a.393.393,0,0,0,.164.333.746.746,0,0,0,.452.122A.956.956,0,0,0,55.224,30.619Z" fill="#303033"/>
      <path d="M59.481,27.745a1.964,1.964,0,0,1,.766-.14v1.008c-.121-.009-.2-.014-.245-.014a1,1,0,0,0-.735.262,1.065,1.065,0,0,0-.266.788v1.778H57.909V27.661h1.043v.5A1.213,1.213,0,0,1,59.481,27.745Z" fill="#303033"/>
      <path d="M64.889,29.852H62.04a.883.883,0,0,0,.364.553,1.207,1.207,0,0,0,.714.2,1.426,1.426,0,0,0,.521-.088,1.258,1.258,0,0,0,.424-.276l.581.63a1.954,1.954,0,0,1-1.554.609,2.451,2.451,0,0,1-1.127-.249,1.812,1.812,0,0,1-.756-.689,1.9,1.9,0,0,1-.266-1,1.921,1.921,0,0,1,.262-1,1.844,1.844,0,0,1,.721-.694,2.127,2.127,0,0,1,1.026-.248,2.1,2.1,0,0,1,1,.238,1.735,1.735,0,0,1,.7.682,2.032,2.032,0,0,1,.256,1.033Q64.91,29.579,64.889,29.852Zm-2.555-1.211a.892.892,0,0,0-.308.574h1.855a.909.909,0,0,0-.308-.571.923.923,0,0,0-.616-.213A.939.939,0,0,0,62.334,28.641Z" fill="#303033"/>
      <path d="M69.6,27.437v1.295h2.268v.91H69.6v1.785H68.466v-4.9h3.7v.91Z" fill="#303033"/>
      <path d="M73.833,31.234a1.834,1.834,0,0,1-.739-.689,2.016,2.016,0,0,1,0-2,1.844,1.844,0,0,1,.739-.69,2.413,2.413,0,0,1,2.131,0,1.852,1.852,0,0,1,.735.69,2.016,2.016,0,0,1,0,2,1.843,1.843,0,0,1-.735.689,2.4,2.4,0,0,1-2.131,0ZM75.59,30.3a1.205,1.205,0,0,0,0-1.518.908.908,0,0,0-.69-.284.918.918,0,0,0-.693.284,1.192,1.192,0,0,0,0,1.518.921.921,0,0,0,.693.284A.912.912,0,0,0,75.59,30.3Z" fill="#303033"/>
      <path d="M81.8,27.661v3.766H80.759v-.448a1.458,1.458,0,0,1-.518.375,1.637,1.637,0,0,1-.651.129,1.6,1.6,0,0,1-1.176-.427,1.7,1.7,0,0,1-.434-1.267V27.661h1.092v1.967q0,.91.763.91a.819.819,0,0,0,.63-.256,1.079,1.079,0,0,0,.238-.759V27.661Z" fill="#303033"/>
      <path d="M86.523,28.025a1.665,1.665,0,0,1,.43,1.246v2.156H85.861V29.439a.976.976,0,0,0-.2-.668.714.714,0,0,0-.567-.221.868.868,0,0,0-.658.256,1.058,1.058,0,0,0-.245.759v1.862H83.1V27.661h1.043V28.1a1.461,1.461,0,0,1,.539-.368,1.888,1.888,0,0,1,.707-.129A1.55,1.55,0,0,1,86.523,28.025Z" fill="#303033"/>
      <path d="M92.094,26.233v5.194H91.051v-.434a1.437,1.437,0,0,1-1.176.49,1.952,1.952,0,0,1-.962-.238,1.705,1.705,0,0,1-.676-.679,2.254,2.254,0,0,1,0-2.044,1.705,1.705,0,0,1,.676-.679,1.952,1.952,0,0,1,.962-.238A1.429,1.429,0,0,1,91,28.06V26.233ZM90.75,30.3a1.192,1.192,0,0,0,0-1.518.908.908,0,0,0-.686-.284.918.918,0,0,0-.693.284,1.192,1.192,0,0,0,0,1.518.921.921,0,0,0,.693.284A.912.912,0,0,0,90.75,30.3Z" fill="#303033"/>
      <path d="M96.283,28.021a1.594,1.594,0,0,1,.469,1.257v2.149H95.73v-.469a1.217,1.217,0,0,1-1.148.525,1.779,1.779,0,0,1-.752-.147,1.117,1.117,0,0,1-.487-.406,1.058,1.058,0,0,1-.168-.588.981.981,0,0,1,.4-.826,2.009,2.009,0,0,1,1.221-.3h.868a.7.7,0,0,0-.217-.55.955.955,0,0,0-.651-.192,1.865,1.865,0,0,0-.591.1,1.557,1.557,0,0,0-.494.255l-.392-.763a2.35,2.35,0,0,1,.739-.336,3.32,3.32,0,0,1,.885-.119A1.961,1.961,0,0,1,96.283,28.021Zm-.931,2.6a.708.708,0,0,0,.308-.382v-.385h-.749q-.672,0-.672.441a.394.394,0,0,0,.165.333.743.743,0,0,0,.451.122A.951.951,0,0,0,95.352,30.619Z" fill="#303033"/>
      <path d="M100.449,31.245a1.132,1.132,0,0,1-.395.179,2.038,2.038,0,0,1-.494.059,1.463,1.463,0,0,1-1.039-.343,1.312,1.312,0,0,1-.368-1.008V28.585h-.581v-.84h.581v-.917h1.092v.917h.938v.84h-.938v1.533a.51.51,0,0,0,.123.367.45.45,0,0,0,.346.13.7.7,0,0,0,.441-.14Z" fill="#303033"/>
      <path d="M101.428,26.961a.593.593,0,0,1,0-.868.692.692,0,0,1,.49-.175.714.714,0,0,1,.491.168.538.538,0,0,1,.188.42.592.592,0,0,1-.188.451.688.688,0,0,1-.491.179A.7.7,0,0,1,101.428,26.961Zm-.056.7h1.093v3.766h-1.093Z" fill="#303033"/>
      <path d="M104.506,31.234a1.847,1.847,0,0,1-.739-.689,2.016,2.016,0,0,1,0-2,1.857,1.857,0,0,1,.739-.69,2.415,2.415,0,0,1,2.132,0,1.865,1.865,0,0,1,.735.69,2.023,2.023,0,0,1,0,2,1.856,1.856,0,0,1-.735.689,2.406,2.406,0,0,1-2.132,0Zm1.757-.931a1.2,1.2,0,0,0,0-1.518.908.908,0,0,0-.69-.284.918.918,0,0,0-.693.284,1.192,1.192,0,0,0,0,1.518.921.921,0,0,0,.693.284A.912.912,0,0,0,106.263,30.3Z" fill="#303033"/>
      <path d="M112.11,28.025a1.665,1.665,0,0,1,.431,1.246v2.156h-1.092V29.439a.981.981,0,0,0-.2-.668.717.717,0,0,0-.567-.221.865.865,0,0,0-.658.256,1.053,1.053,0,0,0-.245.759v1.862h-1.092V27.661h1.043V28.1a1.445,1.445,0,0,1,.539-.368,1.881,1.881,0,0,1,.707-.129A1.55,1.55,0,0,1,112.11,28.025Z" fill="#303033"/>
    </g>
    <g>
      <g>
        <path d="M3.082,14.245l-.022.031a.2.2,0,0,1,.02-.035Z" fill="#303033"/>
        <path d="M20,20.316,20,31.4H18.53l-.976-9.868a12.4,12.4,0,0,0,1.341-.592c.5-.261,1.019-.574,1.1-.626A.006.006,0,0,1,20,20.316Z" fill="#303033"/>
        <path d="M3.06,14.276a.248.248,0,0,0-.018.031l0-.005Z" fill="#303033"/>
        <path d="M6.713,20.482a12.144,12.144,0,0,0,1.175.693c.523.244,1.142.486,1.142.486L6.645,25.63,8.321,31.4H6.645l-2.1-5.841Z" fill="#303033"/>
      </g>
      <path d="M15.815,20.855,15.838,31.4H14.459s-.688-4.589-.693-4.625c-.422-2.665-.85-5.539-.851-5.539-.113.006-.228.008-.344.008a9.351,9.351,0,0,1-4.457-1.151,13.95,13.95,0,0,1-1.826-1.3c-.7,3.088-4.073,5.947-4.073,5.947l-.207,6.648-1.4,0L0,24.269a9.527,9.527,0,0,0,1.964-3.692,6.486,6.486,0,0,0,.168-1.959l-.62-.048a6.238,6.238,0,0,1-.118-1.384,5.563,5.563,0,0,1,.508-2.32,3.775,3.775,0,0,1,.6-.939A5.962,5.962,0,0,1,4.35,12.512a6.034,6.034,0,0,0,.86-.394,9.03,9.03,0,0,0,1.314-1.476c.447-.516.829-1.11,1.311-1.592a2.173,2.173,0,0,1,1.4-.548,1.738,1.738,0,0,1,1.238.515c.324.323,1.532,2.248,2.132,2.248.635,0,1.555-1.782,2.105-2.248a2.253,2.253,0,0,1,.434-.316,1.73,1.73,0,0,1,.807-.2,1.759,1.759,0,0,1,1.241.515c.221.223,1.763,2.791,2.244,3.366.577-.194,1.4-1.788.9-5.5-.047,0-2.584-.786-2.584-.786-.384.4-1.666.139-1.427-.764.018-.067,1.271-1.267,1.271-1.267l2,.078a3.964,3.964,0,0,1,2.2-.337c.006.009,1.815.466,1.815.466s.248,2.78.248,5.7C23.856,14.338,21.626,19.465,15.815,20.855Z" fill="#303033"/>
      <path d="M4.8,4.838l-.99-.657L4.9,2.752,3.271,2.2l.372-1.1,1.59.58V0H6.452V1.685l1.59-.58.372,1.1-1.629.552L7.871,4.181l-.991.657L5.842,3.419Z" fill="#303033"/>
    </g>
  </g>
</svg>
